<svg width="149" height="31" fill="none" xmlns="http://www.w3.org/2000/svg"><g clip-path="url(#a)" fill-rule="evenodd" clip-rule="evenodd" fill="#595959"><path d="M11.707 21.995c2.389 3.905 6.769 6.535 11.627 6.535 7.167 0 11.149-6.216 11.149-6.216l.478 1.673c-3.345 4.304-9.318 6.933-15.928 6.933-7.645 0-14.255-3.666-17.281-8.925C.637 20.003 0 17.85 0 15.46 0 6.933 8.521 0 19.113 0c7.486 0 13.458 3.188 16.644 7.81L23.254 15.3 30.42 4.304c-2.07-1.275-4.54-2.47-7.167-2.47-7.327 0-13.38 6.136-13.38 13.468 0 2.47.638 4.781 1.833 6.694Zm33.527 0c0 .239-.08.478-.08.717 0 2.79 2.23 5.02 5.017 5.02a4.998 4.998 0 0 0 5.017-5.02c0-.24 0-.478-.08-.797-.398-2.39-2.468-4.303-4.937-4.303-2.469.16-4.54 1.992-4.937 4.383Zm18.714 0 2.469 8.447h-8.76l-1.752-5.738c-1.195 3.347-5.017 5.738-9.716 5.738-5.574 0-10.034-3.506-10.034-7.81v-.637c.398-4.065 4.699-7.252 10.034-7.252 3.026 0 5.654 1.036 7.566 2.63l-2.39-7.97H41.332s1.673-1.035 9.079-3.745c7.406-2.71 9.795 3.746 9.795 3.746l3.743 12.59Zm28.032 0v8.447h-8.999V11.954a2.482 2.482 0 0 0-2.468-2.47c-1.036 0-1.912.637-2.31 1.593v19.445h-8.92V9.483h-5.176S71.275 5.1 73.823 5.1c2.39 0 4.141 1.833 4.3 4.144 3.505-1.912 6.93-4.144 9.319-4.144 2.469 0 4.46 1.993 4.54 4.383v12.512Zm13.857 0 1.274 4.144c0 1.753 1.513 3.188 3.265 3.188 1.832 0 3.345-1.515 3.345-3.348v-.398l-1.035-3.666-3.743-12.83c-.159-1.674-1.593-2.949-3.265-2.949-1.673 0-3.345 1.594-3.504 3.188l3.663 12.67Zm14.414 0c-1.672 5.18-6.61 8.925-12.343 8.925-5.734 0-10.672-3.745-12.344-8.925a13.568 13.568 0 0 1-.637-4.064c0-7.173 5.813-12.99 12.981-12.99 7.167 0 12.98 5.817 12.98 12.99 0 1.434-.239 2.789-.637 4.064Zm14.972 0v8.447h-8.84V9.483h-4.937s7.008-4.383 9.476-4.383c2.39 0 4.142 1.833 4.301 4.144 3.504-1.912 6.928-4.144 9.317-4.144 2.469 0 4.46 1.993 4.54 4.383v20.959h-8.999V11.954a2.482 2.482 0 0 0-2.469-2.47c-1.035 0-1.911.637-2.31 1.593v10.918h-.079Z"/></g><defs><clipPath id="a"><path fill="#fff" d="M0 0h149v31H0z"/></clipPath></defs></svg>