<svg width="21" height="21" fill="none" xmlns="http://www.w3.org/2000/svg"><g clip-path="url(#a)"><path d="M21 10.5C21 16.3 16.3 21 10.5 21S0 16.3 0 10.5 4.7 0 10.5 0 21 4.7 21 10.5Z" fill="#4A7AFF"/><path d="M13.71 3.089v2.378s-2.73-.397-2.73 1.364v1.762h2.466l-.308 2.685H10.98v7H8.25v-7l-2.333-.044V8.593h2.29V6.567s-.152-3.013 2.817-3.566c1.233-.23 2.686.088 2.686.088Z" fill="#fff"/><path d="M.957-176.035c-77.461 0-151.018-6.89-179.114 65.216-11.606 29.782-9.92 68.459-9.92 123.84 0 48.598-1.558 94.272 9.92 123.819 28.032 72.149 102.186 65.237 179.072 65.237 74.176 0 150.656 7.723 179.093-65.237 11.627-30.08 9.92-68.181 9.92-123.819 0-73.856 4.075-121.536-31.744-157.333-36.267-36.267-85.312-31.723-157.312-31.723h.085Zm-16.938 34.07c161.578-.256 182.144-18.219 170.794 231.317-4.032 88.256-71.232 78.571-153.834 78.571-150.614 0-154.944-4.31-154.944-154.987 0-152.427 11.946-154.816 137.984-154.944v.043Zm117.845 31.381c-12.523 0-22.677 10.155-22.677 22.677 0 12.523 10.154 22.678 22.677 22.678s22.677-10.155 22.677-22.678c0-12.522-10.154-22.677-22.677-22.677ZM.957-84.067c-53.61 0-97.066 43.478-97.066 97.088 0 53.611 43.456 97.067 97.066 97.067 53.611 0 97.046-43.456 97.046-97.067 0-53.61-43.435-97.088-97.046-97.088Zm0 34.07c83.307 0 83.414 126.037 0 126.037-83.285 0-83.413-126.037 0-126.037Z" fill="#fff"/></g><defs><clipPath id="a"><path fill="#fff" d="M0 0h21v21H0z"/></clipPath></defs></svg>