<svg width="70" height="70" fill="none" xmlns="http://www.w3.org/2000/svg"><path d="M41.008 28.992 35 26.25l6.008-2.742L43.75 17.5l2.742 6.008L52.5 26.25l-6.008 2.742L43.75 35l-2.742-6.008ZM11.667 40.833l2.741-6.008 6.009-2.742-6.009-2.741-2.741-6.009-2.742 6.009-6.008 2.741 6.008 2.742 2.742 6.008ZM24.792 26.25l3.179-7.03L35 16.043l-7.03-3.18-3.178-7.029-3.18 7.03-7.029 3.179 7.03 3.179 3.179 7.029ZM13.125 59.792l17.5-17.53L42.292 53.93l24.791-27.883-4.112-4.113L42.29 45.18 30.626 33.513 8.75 55.416l4.375 4.375Z" fill="#fff"/></svg>