<svg width="70" height="70" fill="none" xmlns="http://www.w3.org/2000/svg"><path d="M56.917 39.176V24.99a7.249 7.249 0 0 1 0 14.186Zm-3 1.657v11.572a96.348 96.348 0 0 0-6.1-4.099c-2.407-1.481-5.121-2.982-7.814-4.115-2.142-.902-4.349-1.607-6.42-1.85V21.826c2.071-.243 4.278-.947 6.42-1.849 2.693-1.134 5.407-2.634 7.814-4.115a96.304 96.304 0 0 0 6.066-4.075l.034-.024v29.07ZM17.5 21.917h13.083V42.25H17.5c-3.06 0-5.559-.622-7.282-2.077-1.673-1.412-2.885-3.843-2.885-8.09 0-4.246 1.212-6.677 2.885-8.09 1.723-1.454 4.222-2.076 7.282-2.076Zm6.873 43.666L16.748 45.25h8.462l7.626 20.333h-8.463Z" stroke="#fff" stroke-width="3"/></svg>