<svg width="76" height="70" fill="none" xmlns="http://www.w3.org/2000/svg"><g filter="url(#a)"><path d="m71.236 29.572-6.724-12.878a3.846 3.846 0 0 0-5.105-1.652l-6.482 3.24h-4.727l-9.13-4.13a3.831 3.831 0 0 0-2.65-.188l-13.514 3.94-6.31-3.155a3.846 3.846 0 0 0-5.106 1.652L4.764 29.279a3.828 3.828 0 0 0 1.681 5.196l6.612 3.306 14.816 11.586c.422.33.91.569 1.43.698l15.848 3.962a3.852 3.852 0 0 0 3.636-1.007l10.061-10.062.023-.025.031-.034.033-.035 4.159-4.865 6.461-3.231a3.828 3.828 0 0 0 1.682-5.196ZM57.426 39.58 46.62 31.721a1.641 1.641 0 0 0-1.95.015l-3.5 2.625a7.146 7.146 0 0 1-8.53 0l-1.483-1.112a.548.548 0 0 1-.058-.824l10.7-10.701a.551.551 0 0 1 .387-.16h10.131l7.777 14.893-2.67 3.122Zm-49.79-8.36a.544.544 0 0 1 .036-.421l6.725-12.878a.548.548 0 0 1 .73-.236l5.333 2.667L13.23 34.2l-5.317-2.659a.545.545 0 0 1-.276-.32Zm38.83 19.48a.55.55 0 0 1-.52.144L30.1 46.881a.542.542 0 0 1-.204-.099L16.023 35.936l7.766-14.872 13.546-3.95a.55.55 0 0 1 .38.027l3.093 1.4c-.498.191-.95.485-1.328.863l-10.701 10.7a3.83 3.83 0 0 0 .41 5.77l1.482 1.111a10.443 10.443 0 0 0 12.469 0l2.53-1.897 9.499 6.908-8.704 8.703Zm21.897-19.187a.543.543 0 0 1-.276.321l-5.316 2.659-7.231-13.848 5.334-2.667a.549.549 0 0 1 .73.236l6.724 12.878a.546.546 0 0 1 .035.421Zm-33.146 27.09a1.642 1.642 0 0 1-1.99 1.194l-8.241-2.06a3.855 3.855 0 0 1-1.584-.825l-6.166-5.36a1.642 1.642 0 0 1 1.597-2.798c.204.07.393.179.556.322l6.167 5.36a.552.552 0 0 0 .227.118l8.24 2.06a1.64 1.64 0 0 1 1.194 1.99Z" fill="#fff"/></g><defs><filter id="a" x="-1" y="0" width="78" height="78" filterUnits="userSpaceOnUse" color-interpolation-filters="sRGB"><feFlood flood-opacity="0" result="BackgroundImageFix"/><feColorMatrix in="SourceAlpha" values="0 0 0 0 0 0 0 0 0 0 0 0 0 0 0 0 0 0 127 0" result="hardAlpha"/><feOffset dy="4"/><feGaussianBlur stdDeviation="2"/><feComposite in2="hardAlpha" operator="out"/><feColorMatrix values="0 0 0 0 0 0 0 0 0 0 0 0 0 0 0 0 0 0 0.25 0"/><feBlend in2="BackgroundImageFix" result="effect1_dropShadow_606_46"/><feBlend in="SourceGraphic" in2="effect1_dropShadow_606_46" result="shape"/></filter></defs></svg>