<svg width="19" height="19" fill="none" xmlns="http://www.w3.org/2000/svg"><g clip-path="url(#a)"><path d="M1.187 1.293C-.306 2.843 0 4.49 0 9.496c0 4.156-.725 8.323 3.07 9.304 1.185.305 11.686.305 12.87-.002 1.58-.407 2.865-1.69 3.041-3.924.024-.312.024-10.438 0-10.756-.188-2.381-1.653-3.753-3.584-4.03-.442-.065-.531-.084-2.802-.088C4.542.004 2.776-.355 1.187 1.293Z" fill="url(#b)"/><path d="M9.498 2.485c-2.874 0-5.604-.256-6.646 2.42-.431 1.105-.369 2.54-.369 4.596 0 1.803-.057 3.498.369 4.595 1.04 2.677 3.792 2.42 6.645 2.42 2.752 0 5.59.287 6.646-2.42.431-1.117.368-2.53.368-4.595 0-2.741.151-4.51-1.178-5.839-1.346-1.346-3.166-1.177-5.838-1.177h.003ZM8.87 3.749c5.996-.01 6.76-.676 6.338 8.584-.15 3.275-2.643 2.916-5.709 2.916-5.589 0-5.75-.16-5.75-5.751 0-5.657.444-5.745 5.12-5.75v.001Zm4.373 1.165a.842.842 0 1 0 0 1.683.842.842 0 0 0 0-1.683Zm-3.745.984a3.603 3.603 0 1 0 .002 7.205 3.603 3.603 0 0 0-.002-7.205Zm0 1.264c3.092 0 3.096 4.677 0 4.677-3.09 0-3.095-4.677 0-4.677Z" fill="#fff"/></g><defs><linearGradient id="b" x1="1.224" y1="17.787" x2="18.882" y2="2.503" gradientUnits="userSpaceOnUse"><stop stop-color="#FD5"/><stop offset=".5" stop-color="#FF543E"/><stop offset="1" stop-color="#C837AB"/></linearGradient><clipPath id="a"><path fill="#fff" d="M0 0h19v19H0z"/></clipPath></defs></svg>