<svg width="50" height="50" fill="none" xmlns="http://www.w3.org/2000/svg"><path d="M21.51 8.994c.888-3.659 6.092-3.659 6.98 0a3.59 3.59 0 0 0 5.36 2.22c3.215-1.958 6.896 1.721 4.938 4.938a3.591 3.591 0 0 0 2.218 5.358c3.659.888 3.659 6.092 0 6.98a3.59 3.59 0 0 0-2.22 5.36c1.958 3.215-1.721 6.896-4.938 4.938a3.591 3.591 0 0 0-5.358 2.218c-.888 3.659-6.092 3.659-6.98 0a3.59 3.59 0 0 0-5.36-2.22c-3.215 1.958-6.896-1.721-4.937-4.938a3.591 3.591 0 0 0-2.22-5.358c-3.658-.888-3.658-6.092 0-6.98a3.59 3.59 0 0 0 2.222-5.36c-1.959-3.215 1.72-6.896 4.937-4.937 2.075 1.266 4.783.145 5.358-2.22Z" stroke="#000" stroke-width="3" stroke-linecap="round" stroke-linejoin="round"/><path d="M31.25 25a6.25 6.25 0 1 1-12.5 0 6.25 6.25 0 0 1 12.5 0v0Z" stroke="#000" stroke-width="3" stroke-linecap="round" stroke-linejoin="round"/></svg>