<svg width="123" height="21" fill="none" xmlns="http://www.w3.org/2000/svg"><path d="M8.89 2.977c.464-1.106 2.03-1.106 2.494 0l1.13 2.696c.194.465.632.783 1.135.825l2.913.24c1.195.1 1.68 1.59.77 2.372l-2.215 1.908c-.382.329-.55.843-.433 1.334l.671 2.846c.275 1.167-.992 2.088-2.017 1.465l-2.499-1.517a1.352 1.352 0 0 0-1.403 0l-2.499 1.517c-1.025.623-2.293-.298-2.017-1.465l.671-2.846a1.352 1.352 0 0 0-.434-1.334L2.942 9.11c-.909-.782-.425-2.272.77-2.371l2.914-.241c.503-.042.94-.36 1.135-.825l1.13-2.696Zm25.682 0c.463-1.106 2.03-1.106 2.493 0l1.13 2.696c.195.465.632.783 1.135.825l2.914.24c1.195.1 1.679 1.59.77 2.372L40.8 11.018c-.383.329-.55.843-.434 1.334l.671 2.846c.276 1.167-.992 2.088-2.017 1.465l-2.499-1.517a1.352 1.352 0 0 0-1.403 0l-2.499 1.517c-1.025.623-2.292-.298-2.017-1.465l.671-2.846a1.352 1.352 0 0 0-.433-1.334L28.623 9.11c-.909-.782-.424-2.272.77-2.371l2.914-.241c.503-.042.94-.36 1.136-.825l1.129-2.696Zm25.681 0c.464-1.106 2.03-1.106 2.494 0l1.13 2.696a1.35 1.35 0 0 0 1.134.825l2.914.24c1.195.1 1.68 1.59.77 2.372l-2.215 1.908a1.35 1.35 0 0 0-.434 1.334l.672 2.846c.275 1.167-.993 2.088-2.018 1.465l-2.498-1.517a1.352 1.352 0 0 0-1.404 0L58.3 16.663c-1.025.623-2.293-.298-2.018-1.465l.672-2.846a1.352 1.352 0 0 0-.434-1.334L54.304 9.11c-.908-.782-.424-2.272.771-2.371l2.913-.241c.503-.042.941-.36 1.136-.825l1.13-2.696Zm25.682 0c.463-1.106 2.03-1.106 2.493 0l1.13 2.696c.194.465.632.783 1.135.825l2.913.24c1.195.1 1.68 1.59.77 2.372l-2.215 1.908c-.382.329-.55.843-.433 1.334l.67 2.846c.276 1.167-.992 2.088-2.016 1.465l-2.499-1.517a1.352 1.352 0 0 0-1.403 0l-2.5 1.517c-1.024.623-2.292-.298-2.016-1.465l.671-2.846a1.352 1.352 0 0 0-.434-1.334L79.986 9.11c-.909-.782-.425-2.272.77-2.371l2.914-.241c.503-.042.94-.36 1.135-.825l1.13-2.696Zm25.681 0c.463-1.106 2.03-1.106 2.493 0l1.13 2.696a1.35 1.35 0 0 0 1.135.825l2.914.24c1.195.1 1.679 1.59.77 2.372l-2.215 1.908a1.35 1.35 0 0 0-.434 1.334l.671 2.846c.276 1.167-.992 2.088-2.017 1.465l-2.499-1.517a1.35 1.35 0 0 0-1.403 0l-2.499 1.517c-1.025.623-2.292-.298-2.017-1.465l.671-2.846a1.351 1.351 0 0 0-.433-1.334l-2.216-1.908c-.909-.782-.424-2.272.771-2.371l2.913-.241c.503-.042.941-.36 1.136-.825l1.129-2.696Z" fill="#FFDF6B"/></svg>