<svg width="116" height="20" fill="none" xmlns="http://www.w3.org/2000/svg"><path d="M9.059 2.62c.317-.883 1.565-.883 1.882 0l1.233 3.43a1 1 0 0 0 .91.662l3.645.112c.937.03 1.323 1.216.581 1.79l-2.882 2.233a1 1 0 0 0-.348 1.07l1.02 3.5c.262.901-.748 1.635-1.523 1.107l-3.014-2.051a1 1 0 0 0-1.126 0l-3.014 2.051c-.775.528-1.785-.206-1.523-1.106l1.02-3.5a1 1 0 0 0-.348-1.07L2.69 8.613c-.742-.574-.356-1.76.581-1.79l3.645-.112a1 1 0 0 0 .91-.661L9.06 2.619Zm24 0c.317-.883 1.565-.883 1.882 0l1.233 3.43a1 1 0 0 0 .91.662l3.645.112c.937.03 1.323 1.216.581 1.79l-2.882 2.233a1 1 0 0 0-.348 1.07l1.02 3.5c.262.901-.748 1.635-1.523 1.107l-3.014-2.051a1 1 0 0 0-1.126 0l-3.014 2.051c-.775.528-1.785-.206-1.523-1.106l1.02-3.5a1 1 0 0 0-.348-1.07L26.69 8.613c-.742-.574-.356-1.76.581-1.79l3.645-.112a1 1 0 0 0 .91-.661l1.233-3.432Zm24 0c.317-.883 1.565-.883 1.882 0l1.233 3.43a1 1 0 0 0 .91.662l3.645.112c.937.03 1.323 1.216.581 1.79l-2.882 2.233a1 1 0 0 0-.348 1.07l1.02 3.5c.262.901-.748 1.635-1.523 1.107l-3.014-2.051a1 1 0 0 0-1.126 0l-3.014 2.051c-.775.528-1.785-.206-1.523-1.106l1.02-3.5a1 1 0 0 0-.348-1.07L50.69 8.613c-.742-.574-.356-1.76.581-1.79l3.645-.112a1 1 0 0 0 .91-.661l1.233-3.432Zm24 0c.317-.883 1.565-.883 1.882 0l1.233 3.43a1 1 0 0 0 .91.662l3.645.112c.937.03 1.323 1.216.581 1.79l-2.882 2.233a1 1 0 0 0-.348 1.07l1.02 3.5c.262.901-.748 1.635-1.523 1.107l-3.014-2.051a1 1 0 0 0-1.126 0l-3.014 2.051c-.775.528-1.785-.206-1.523-1.106l1.02-3.5a1 1 0 0 0-.348-1.07L74.69 8.613c-.742-.574-.356-1.76.581-1.79l3.645-.112a1 1 0 0 0 .91-.661l1.233-3.432Zm24 0c.317-.883 1.565-.883 1.882 0l1.233 3.43a1 1 0 0 0 .91.662l3.645.112c.937.03 1.323 1.216.581 1.79l-2.882 2.233a1 1 0 0 0-.348 1.07l1.02 3.5c.262.901-.748 1.635-1.523 1.107l-3.014-2.051a1.001 1.001 0 0 0-1.126 0l-3.014 2.051c-.775.528-1.785-.206-1.523-1.106l1.02-3.5a1 1 0 0 0-.348-1.07L98.69 8.613c-.742-.574-.356-1.76.581-1.79l3.645-.112a1 1 0 0 0 .91-.661l1.233-3.432Z" fill="#000"/></svg>