<svg width="180" height="31" fill="none" xmlns="http://www.w3.org/2000/svg"><path d="M14.559 2.62c.317-.883 1.565-.883 1.882 0l2.555 7.11a1 1 0 0 0 .91.662l7.553.233c.938.028 1.323 1.215.582 1.79l-5.974 4.627a1 1 0 0 0-.348 1.07l2.113 7.256c.263.9-.747 1.633-1.522 1.106l-6.247-4.252a1 1 0 0 0-1.126 0L8.69 26.474c-.775.527-1.785-.206-1.522-1.107l2.112-7.255a1 1 0 0 0-.347-1.07l-5.974-4.627c-.741-.575-.356-1.761.582-1.79l7.553-.233a1 1 0 0 0 .91-.661l2.555-7.112Zm37.2 0c.317-.883 1.565-.883 1.882 0l2.555 7.11a1 1 0 0 0 .91.662l7.553.233c.938.028 1.323 1.215.582 1.79l-5.974 4.627a1 1 0 0 0-.348 1.07l2.113 7.256c.263.9-.747 1.633-1.522 1.106l-6.247-4.252a1 1 0 0 0-1.126 0l-6.247 4.252c-.775.527-1.785-.206-1.522-1.107l2.112-7.255a1 1 0 0 0-.347-1.07l-5.974-4.627c-.741-.575-.356-1.761.582-1.79l7.553-.233a1 1 0 0 0 .91-.661l2.555-7.112Zm37.2 0c.317-.883 1.565-.883 1.882 0l2.555 7.11a1 1 0 0 0 .91.662l7.553.233c.938.028 1.323 1.215.582 1.79l-5.974 4.627a1 1 0 0 0-.347 1.07l2.112 7.256c.263.9-.747 1.633-1.522 1.106l-6.247-4.252a1 1 0 0 0-1.126 0l-6.247 4.252c-.775.527-1.785-.206-1.522-1.107l2.112-7.255a1 1 0 0 0-.347-1.07l-5.974-4.627c-.741-.575-.356-1.761.582-1.79l7.552-.233a1 1 0 0 0 .91-.661l2.556-7.112Zm37.2 0c.317-.883 1.565-.883 1.882 0l2.555 7.11a1 1 0 0 0 .91.662l7.553.233c.938.028 1.323 1.215.582 1.79l-5.974 4.627a1 1 0 0 0-.347 1.07l2.112 7.256c.263.9-.747 1.633-1.522 1.106l-6.247-4.252a1.001 1.001 0 0 0-1.126 0l-6.247 4.252c-.775.527-1.785-.206-1.522-1.107l2.112-7.255a1 1 0 0 0-.347-1.07l-5.974-4.627c-.741-.575-.356-1.761.582-1.79l7.553-.233a1 1 0 0 0 .91-.661l2.555-7.112Zm37.2 0c.317-.883 1.565-.883 1.882 0l2.555 7.11a1 1 0 0 0 .91.662l7.553.233c.938.028 1.323 1.215.582 1.79l-5.974 4.627a1 1 0 0 0-.347 1.07l2.112 7.256c.263.9-.747 1.633-1.522 1.106l-6.247-4.252a1.001 1.001 0 0 0-1.126 0l-6.247 4.252c-.775.527-1.785-.206-1.522-1.107l2.112-7.255a1 1 0 0 0-.347-1.07l-5.974-4.627c-.741-.575-.356-1.761.582-1.79l7.552-.233a1 1 0 0 0 .911-.661l2.555-7.112Z" fill="#6F764D"/></svg>