<svg width="34" height="33" fill="none" xmlns="http://www.w3.org/2000/svg"><path d="M32.092 28.548c1.052 0 1.908.821 1.908 1.831 0 1.012-.856 1.832-1.908 1.832H21.306c-1.052 0-1.908-.82-1.908-1.832 0-1.01.856-1.831 1.908-1.831h10.786ZM24.612 1.25l2.786 2.097c1.143.846 1.904 1.962 2.165 3.135.3 1.291-.02 2.559-.922 3.655L12.044 30.471c-.761.923-1.884 1.443-3.086 1.462l-6.615.077a.748.748 0 0 1-.742-.558L.098 25.277c-.26-1.135 0-2.308.762-3.212L12.626 7.637c.2-.23.56-.267.801-.096l4.951 3.732c.32.25.762.385 1.223.327.982-.115 1.643-.962 1.543-1.866a1.85 1.85 0 0 0-.621-1.135l-4.81-3.655a.653.653 0 0 1-.12-.94l1.863-2.291c1.724-2.097 4.73-2.29 7.156-.462Z" fill="#fff"/></svg>