<svg width="150" height="34" fill="none" xmlns="http://www.w3.org/2000/svg"><path d="M7.534 23.804c1.541 0 2.663-.26 3.366-.782.703-.521 1.054-1.258 1.054-2.21 0-.567-.125-1.054-.374-1.462-.227-.408-.567-.77-1.02-1.088-.43-.34-.963-.646-1.598-.918a20.842 20.842 0 0 0-2.176-.85 37.198 37.198 0 0 1-2.38-.952A8.808 8.808 0 0 1 2.4 14.216a6.404 6.404 0 0 1-1.394-1.87c-.34-.725-.51-1.598-.51-2.618 0-2.13.737-3.797 2.21-4.998 1.473-1.224 3.48-1.836 6.018-1.836 1.473 0 2.777.17 3.91.51 1.156.317 2.063.669 2.72 1.054l-1.326 3.468c-.77-.43-1.62-.76-2.55-.986a11.592 11.592 0 0 0-2.822-.34c-1.156 0-2.063.238-2.72.714-.635.476-.952 1.145-.952 2.006 0 .521.102.975.306 1.36.227.363.533.691.918.986.408.295.873.567 1.394.816.544.25 1.133.487 1.768.714a29.01 29.01 0 0 1 2.958 1.258c.884.408 1.62.907 2.21 1.496a5.552 5.552 0 0 1 1.394 2.04c.317.77.476 1.711.476 2.822 0 2.13-.76 3.785-2.278 4.964-1.496 1.156-3.695 1.734-6.596 1.734-.975 0-1.87-.068-2.686-.204a16.142 16.142 0 0 1-2.142-.442 18.503 18.503 0 0 1-1.598-.544 12.01 12.01 0 0 1-1.088-.544l1.258-3.502c.612.34 1.44.68 2.482 1.02 1.043.34 2.3.51 3.774.51ZM24.127 27h-4.114V9.218h4.114V27Zm.442-22.984c0 .77-.249 1.383-.748 1.836a2.541 2.541 0 0 1-1.768.68c-.702 0-1.303-.227-1.802-.68-.498-.453-.748-1.065-.748-1.836 0-.793.25-1.417.748-1.87.499-.453 1.1-.68 1.802-.68.68 0 1.27.227 1.768.68.499.453.748 1.077.748 1.87ZM39.508 17.65c0-1.859-.238-3.196-.714-4.012-.453-.839-1.315-1.258-2.584-1.258-.453 0-.952.034-1.496.102-.544.068-.952.125-1.224.17V27h-4.114V9.796c.793-.227 1.825-.442 3.094-.646a26.151 26.151 0 0 1 4.08-.306c1.224 0 2.221.159 2.992.476.793.317 1.45.737 1.972 1.258a8.514 8.514 0 0 1 2.244-1.122 10.38 10.38 0 0 1 1.496-.442 7.983 7.983 0 0 1 1.632-.17c1.383 0 2.516.204 3.4.612.907.385 1.61.94 2.108 1.666.521.703.873 1.564 1.054 2.584.204.997.306 2.097.306 3.298V27H49.64v-9.35c0-1.859-.227-3.196-.68-4.012-.453-.839-1.326-1.258-2.618-1.258a5.16 5.16 0 0 0-1.87.34c-.59.204-1.032.408-1.326.612a9.07 9.07 0 0 1 .374 1.802 19.2 19.2 0 0 1 .102 2.04V27h-4.114v-9.35Zm31.084.544c0-1.836-.42-3.264-1.258-4.284-.816-1.02-2.142-1.53-3.978-1.53-.386 0-.794.023-1.224.068a5.76 5.76 0 0 0-1.224.204v10.166c.362.25.838.487 1.428.714a6.088 6.088 0 0 0 1.938.306c1.496 0 2.584-.51 3.264-1.53.702-1.02 1.054-2.391 1.054-4.114Zm4.216-.068c0 1.36-.182 2.607-.544 3.74-.34 1.133-.839 2.108-1.496 2.924a6.686 6.686 0 0 1-2.482 1.904c-.975.453-2.086.68-3.332.68-.839 0-1.61-.102-2.312-.306-.703-.204-1.28-.43-1.734-.68v6.902h-4.114V9.796c.838-.227 1.87-.442 3.094-.646a23.567 23.567 0 0 1 3.876-.306c1.405 0 2.663.215 3.774.646 1.11.43 2.051 1.054 2.822 1.87.793.793 1.394 1.768 1.802 2.924.43 1.133.646 2.414.646 3.842Zm12.026 9.282c-1.428 0-2.686-.227-3.774-.68a7.759 7.759 0 0 1-2.72-1.904c-.726-.816-1.27-1.78-1.632-2.89-.363-1.133-.544-2.38-.544-3.74 0-1.36.192-2.607.578-3.74.408-1.133.974-2.108 1.7-2.924a7.308 7.308 0 0 1 2.652-1.938c1.065-.476 2.244-.714 3.536-.714.793 0 1.586.068 2.38.204.793.136 1.552.351 2.278.646l-.714 2.686a7.562 7.562 0 0 0-1.666-.544 9.08 9.08 0 0 0-1.972-.204c-1.768 0-3.128.555-4.08 1.666-.93 1.11-1.394 2.731-1.394 4.862 0 .952.102 1.825.306 2.618.226.793.566 1.473 1.02 2.04a4.85 4.85 0 0 0 1.802 1.326c.725.295 1.609.442 2.652.442.838 0 1.598-.08 2.278-.238.68-.159 1.212-.329 1.598-.51l.442 2.652a3.78 3.78 0 0 1-.782.34c-.34.09-.726.17-1.156.238-.431.09-.896.159-1.394.204a9.856 9.856 0 0 1-1.394.102Zm23.295-9.248c0 1.405-.204 2.675-.612 3.808-.408 1.133-.986 2.108-1.734 2.924a7.579 7.579 0 0 1-2.618 1.904c-1.02.43-2.131.646-3.332.646-1.202 0-2.312-.215-3.332-.646a7.923 7.923 0 0 1-2.652-1.904c-.726-.816-1.292-1.79-1.7-2.924-.408-1.133-.612-2.403-.612-3.808 0-1.383.204-2.64.612-3.774.408-1.156.974-2.142 1.7-2.958a7.53 7.53 0 0 1 2.652-1.87c1.02-.453 2.13-.68 3.332-.68 1.201 0 2.312.227 3.332.68a7.213 7.213 0 0 1 2.618 1.87c.748.816 1.326 1.802 1.734 2.958.408 1.133.612 2.391.612 3.774Zm-3.298 0c0-1.995-.454-3.57-1.36-4.726-.884-1.179-2.097-1.768-3.638-1.768-1.542 0-2.766.59-3.672 1.768-.884 1.156-1.326 2.731-1.326 4.726s.442 3.581 1.326 4.76c.906 1.156 2.13 1.734 3.672 1.734 1.541 0 2.754-.578 3.638-1.734.906-1.179 1.36-2.765 1.36-4.76Zm23.352 0c0 1.405-.204 2.675-.612 3.808-.408 1.133-.986 2.108-1.734 2.924a7.57 7.57 0 0 1-2.618 1.904c-1.02.43-2.13.646-3.332.646-1.201 0-2.312-.215-3.332-.646a7.923 7.923 0 0 1-2.652-1.904c-.725-.816-1.292-1.79-1.7-2.924-.408-1.133-.612-2.403-.612-3.808 0-1.383.204-2.64.612-3.774.408-1.156.975-2.142 1.7-2.958a7.53 7.53 0 0 1 2.652-1.87c1.02-.453 2.131-.68 3.332-.68 1.202 0 2.312.227 3.332.68a7.205 7.205 0 0 1 2.618 1.87c.748.816 1.326 1.802 1.734 2.958.408 1.133.612 2.391.612 3.774Zm-3.298 0c0-1.995-.453-3.57-1.36-4.726-.884-1.179-2.096-1.768-3.638-1.768-1.541 0-2.765.59-3.672 1.768-.884 1.156-1.326 2.731-1.326 4.726s.442 3.581 1.326 4.76c.907 1.156 2.131 1.734 3.672 1.734 1.542 0 2.754-.578 3.638-1.734.907-1.179 1.36-2.765 1.36-4.76Zm14.139-.884c.68.521 1.394 1.167 2.142 1.938a30.36 30.36 0 0 1 2.244 2.516 39.62 39.62 0 0 1 2.108 2.72 28.383 28.383 0 0 1 1.666 2.55h-3.706a24.312 24.312 0 0 0-1.666-2.414 28.566 28.566 0 0 0-1.938-2.38 26.09 26.09 0 0 0-2.074-2.108 18.68 18.68 0 0 0-2.006-1.598V27h-3.162V1.16l3.162-.544v16.116l1.802-1.802a82.087 82.087 0 0 0 1.938-2.006c.635-.68 1.235-1.326 1.802-1.938.567-.635 1.054-1.19 1.462-1.666h3.706c-.521.567-1.088 1.19-1.7 1.87-.612.68-1.247 1.371-1.904 2.074l-2.006 2.074c-.657.68-1.281 1.326-1.87 1.938Z" fill="#fff"/></svg>