<svg width="140" height="31" fill="none" xmlns="http://www.w3.org/2000/svg"><path d="M9.24 24.32c-1.43 0-2.827-.16-4.192-.48-1.344-.32-2.517-.8-3.52-1.44-.49-.32-.79-.715-.896-1.184a2.102 2.102 0 0 1 .096-1.312c.192-.427.48-.715.864-.864.405-.17.864-.096 1.376.224.939.555 1.93.96 2.976 1.216a13.81 13.81 0 0 0 3.296.384c1.685 0 2.912-.277 3.68-.832.768-.576 1.152-1.312 1.152-2.208 0-.747-.277-1.333-.832-1.76-.533-.427-1.461-.779-2.784-1.056l-3.52-.736C2.926 13.419.92 11.36.92 8.096c0-1.408.373-2.635 1.12-3.68.747-1.045 1.781-1.856 3.104-2.432 1.323-.576 2.848-.864 4.576-.864 1.28 0 2.496.16 3.648.48 1.152.32 2.187.79 3.104 1.408.427.299.683.672.768 1.12a1.84 1.84 0 0 1-.16 1.216c-.192.363-.501.619-.928.768-.405.128-.885.032-1.44-.288a9.109 9.109 0 0 0-2.4-.96 11.369 11.369 0 0 0-2.624-.288c-1.472 0-2.624.31-3.456.928-.832.619-1.248 1.43-1.248 2.432 0 .768.256 1.387.768 1.856.512.448 1.387.8 2.624 1.056l3.488.736c2.112.448 3.68 1.152 4.704 2.112 1.045.96 1.568 2.24 1.568 3.84 0 1.344-.363 2.528-1.088 3.552-.725 1.024-1.76 1.824-3.104 2.4-1.323.555-2.89.832-4.704.832ZM23.251 5.152c-.746 0-1.333-.181-1.76-.544-.405-.384-.607-.907-.607-1.568 0-.683.202-1.205.607-1.568.427-.363 1.014-.544 1.76-.544 1.58 0 2.368.704 2.368 2.112 0 1.408-.789 2.112-2.367 2.112Zm0 19.072c-.64 0-1.13-.192-1.472-.576-.34-.384-.512-.917-.512-1.6V10.304c0-1.45.662-2.176 1.985-2.176 1.344 0 2.015.725 2.015 2.176v11.744c0 .683-.17 1.216-.511 1.6-.342.384-.843.576-1.505.576Zm8.22.032c-1.322 0-1.983-.683-1.983-2.048V10.112c0-1.344.65-2.016 1.952-2.016 1.301 0 1.952.672 1.952 2.016v.64a4.99 4.99 0 0 1 1.952-1.984c.832-.49 1.792-.736 2.88-.736 2.346 0 3.882 1.024 4.608 3.072a5.35 5.35 0 0 1 2.112-2.24c.917-.555 1.962-.832 3.136-.832 3.52 0 5.28 2.144 5.28 6.432v7.744c0 1.365-.672 2.048-2.016 2.048-1.323 0-1.984-.683-1.984-2.048v-7.584c0-1.195-.203-2.07-.608-2.624-.384-.555-1.046-.832-1.984-.832-1.046 0-1.867.373-2.464 1.12-.598.725-.896 1.739-.896 3.04v6.88c0 1.365-.662 2.048-1.984 2.048-1.344 0-2.016-.683-2.016-2.048v-7.584c0-1.195-.203-2.07-.608-2.624-.384-.555-1.035-.832-1.952-.832-1.046 0-1.867.373-2.464 1.12-.598.725-.896 1.739-.896 3.04v6.88c0 1.365-.672 2.048-2.016 2.048Zm28 5.76c-1.323 0-1.985-.672-1.985-2.016V10.112c0-1.344.65-2.016 1.952-2.016 1.323 0 1.984.672 1.984 2.016v.672c.448-.832 1.12-1.493 2.016-1.984.896-.512 1.92-.768 3.072-.768 1.366 0 2.56.33 3.584.992 1.046.661 1.856 1.6 2.432 2.816.576 1.195.864 2.635.864 4.32 0 1.664-.288 3.115-.864 4.352-.576 1.216-1.376 2.155-2.4 2.816s-2.23.992-3.616.992c-1.11 0-2.112-.235-3.008-.704-.874-.49-1.546-1.141-2.016-1.952V28c0 1.344-.672 2.016-2.016 2.016Zm5.92-8.736c1.194 0 2.154-.427 2.88-1.28.725-.875 1.087-2.155 1.087-3.84 0-1.707-.362-2.976-1.088-3.808-.725-.853-1.685-1.28-2.88-1.28-1.194 0-2.154.427-2.88 1.28-.725.832-1.088 2.101-1.088 3.808 0 1.685.363 2.965 1.088 3.84.726.853 1.686 1.28 2.88 1.28Z" fill="#F58D41"/><path d="M83.618 24.288c-1.558 0-2.902-.33-4.032-.992-1.13-.683-2.006-1.632-2.624-2.848-.598-1.237-.896-2.677-.896-4.32 0-2.475.672-4.416 2.016-5.824 1.344-1.43 3.19-2.144 5.536-2.144.768 0 1.568.128 2.4.384.832.235 1.59.63 2.272 1.184.362.256.512.576.448.96a1.094 1.094 0 0 1-.544.864c-.299.192-.65.15-1.056-.128-.576-.427-1.152-.725-1.728-.896a5.53 5.53 0 0 0-1.632-.256c-1.622 0-2.87.512-3.744 1.536-.875 1.003-1.312 2.453-1.312 4.352 0 1.856.437 3.328 1.312 4.416.874 1.067 2.122 1.6 3.744 1.6a5.53 5.53 0 0 0 1.632-.256c.576-.17 1.152-.47 1.728-.896.405-.277.757-.31 1.056-.096.298.192.458.48.48.864.042.384-.107.693-.448.928-.683.555-1.43.96-2.24 1.216a8.48 8.48 0 0 1-2.368.352Zm14.372 0c-1.515 0-2.827-.33-3.936-.992-1.11-.661-1.974-1.59-2.592-2.784-.598-1.216-.896-2.645-.896-4.288 0-1.643.298-3.061.896-4.256.618-1.216 1.482-2.155 2.592-2.816s2.421-.992 3.936-.992c1.493 0 2.794.33 3.904.992 1.13.661 1.994 1.6 2.592 2.816.618 1.195.928 2.613.928 4.256 0 1.643-.31 3.072-.928 4.288a6.547 6.547 0 0 1-2.592 2.784c-1.11.661-2.41.992-3.904.992Zm0-2.08c1.45 0 2.613-.512 3.488-1.536.874-1.045 1.312-2.528 1.312-4.448 0-1.941-.438-3.424-1.312-4.448-.875-1.024-2.038-1.536-3.488-1.536-1.472 0-2.646.512-3.52 1.536-.854 1.024-1.28 2.507-1.28 4.448 0 1.92.426 3.403 1.28 4.448.874 1.024 2.048 1.536 3.52 1.536Zm17.781 2.08c-1.515 0-2.827-.33-3.936-.992-1.109-.661-1.973-1.59-2.592-2.784-.597-1.216-.896-2.645-.896-4.288 0-1.643.299-3.061.896-4.256.619-1.216 1.483-2.155 2.592-2.816s2.421-.992 3.936-.992c1.493 0 2.795.33 3.904.992 1.131.661 1.995 1.6 2.592 2.816.619 1.195.928 2.613.928 4.256 0 1.643-.309 3.072-.928 4.288a6.535 6.535 0 0 1-2.592 2.784c-1.109.661-2.411.992-3.904.992Zm0-2.08c1.451 0 2.613-.512 3.488-1.536.875-1.045 1.312-2.528 1.312-4.448 0-1.941-.437-3.424-1.312-4.448-.875-1.024-2.037-1.536-3.488-1.536-1.472 0-2.645.512-3.52 1.536-.853 1.024-1.28 2.507-1.28 4.448 0 1.92.427 3.403 1.28 4.448.875 1.024 2.048 1.536 3.52 1.536Zm12.597 2.016c-.853 0-1.28-.448-1.28-1.344V2.528c0-.875.427-1.312 1.28-1.312.875 0 1.312.437 1.312 1.312V15.36h.064l6.56-6.272c.278-.277.534-.49.768-.64.235-.15.544-.224.928-.224.512 0 .843.203.992.608.171.384.064.779-.32 1.184l-6.24 5.92 6.848 6.432c.448.427.566.843.352 1.248-.192.405-.522.608-.992.608-.384 0-.704-.075-.96-.224a7.419 7.419 0 0 1-.832-.736l-7.104-6.56h-.064v6.176c0 .896-.437 1.344-1.312 1.344Z" fill="#222"/></svg>