<svg width="36" height="24" fill="none" xmlns="http://www.w3.org/2000/svg"><path d="m15.673 11.279-.003.708c0 2.943.172 5.626.432 7.376l.227 1.087c.127.576.293 1.232.467 1.567C17.43 23.242 18.672 24 20 24h.116c.866-.029 2.685-.789 2.685-.815 2.928-1.229 8.577-4.936 11.186-7.58l.758-.793c.199-.215.422-.47.56-.668.463-.613.694-1.37.694-2.129 0-.846-.26-1.632-.75-2.275l-.78-.84-.174-.18C31.929 6.153 25.748 1.956 22.514.672l-.488-.187c-.587-.21-1.41-.462-1.91-.485a4 4 0 0 0-1.82.438 3.772 3.772 0 0 0-1.616 1.81c-.203.523-.521 2.099-.521 2.127-.292 1.588-.462 4.095-.486 6.904ZM0 12c0 1.676 1.346 3.036 3.007 3.036l7.398-.655A2.37 2.37 0 0 0 12.764 12a2.369 2.369 0 0 0-2.359-2.382l-7.398-.654C1.347 8.965 0 10.325 0 12.001Z" fill="#AAA"/></svg>