<svg width="136" height="21" fill="none" xmlns="http://www.w3.org/2000/svg"><path d="M17.509 13a1.21 1.21 0 0 0-.351 1.067l.977 5.412c.083.458-.11.922-.495 1.187a1.21 1.21 0 0 1-1.286.088l-4.872-2.54a1.244 1.244 0 0 0-.55-.144h-.298a.893.893 0 0 0-.297.099L5.465 20.72c-.24.121-.514.164-.78.121a1.223 1.223 0 0 1-.98-1.398l.98-5.41a1.23 1.23 0 0 0-.352-1.078L.362 9.106a1.187 1.187 0 0 1-.296-1.242c.147-.436.523-.753.978-.825l5.466-.793c.416-.043.78-.296.968-.67L9.886.638a1.17 1.17 0 0 1 .22-.297l.1-.077a.738.738 0 0 1 .177-.143l.12-.044.186-.077h.463c.414.043.778.29.968.66l2.44 4.916c.177.36.519.61.914.67l5.466.793c.462.066.848.385 1 .825.145.441.02.925-.318 1.243L17.509 13Zm29.999 0a1.21 1.21 0 0 0-.35 1.067l.977 5.412c.083.458-.11.922-.494 1.187a1.21 1.21 0 0 1-1.287.088l-4.872-2.54a1.244 1.244 0 0 0-.55-.144h-.298a.893.893 0 0 0-.297.099l-4.872 2.552c-.24.121-.514.164-.78.121a1.222 1.222 0 0 1-.98-1.398l.98-5.41a1.231 1.231 0 0 0-.352-1.078l-3.971-3.85a1.187 1.187 0 0 1-.296-1.242c.147-.436.523-.753.978-.825l5.466-.793c.416-.043.78-.296.968-.67L39.886.638a1.17 1.17 0 0 1 .22-.297l.1-.077a.738.738 0 0 1 .176-.143l.12-.044L40.69 0h.463c.414.043.778.29.968.66l2.44 4.916c.177.36.519.61.914.67l5.466.793c.462.066.848.385 1 .825.145.441.02.925-.318 1.243L47.508 13Zm28 0a1.21 1.21 0 0 0-.35 1.067l.977 5.412c.083.458-.11.922-.495 1.187a1.21 1.21 0 0 1-1.286.088l-4.872-2.54a1.244 1.244 0 0 0-.55-.144h-.298a.893.893 0 0 0-.297.099l-4.872 2.552c-.24.121-.514.164-.78.121a1.222 1.222 0 0 1-.98-1.398l.98-5.41a1.231 1.231 0 0 0-.352-1.078l-3.971-3.85a1.187 1.187 0 0 1-.296-1.242c.147-.436.523-.753.978-.825l5.466-.793c.416-.043.78-.296.968-.67L67.887.638c.057-.11.13-.211.22-.297l.098-.077a.738.738 0 0 1 .177-.143l.12-.044L68.69 0h.463c.414.043.778.29.968.66l2.44 4.916c.177.36.519.61.914.67l5.466.793c.462.066.848.385 1 .825.145.441.02.925-.318 1.243L75.508 13Zm28 0a1.212 1.212 0 0 0-.35 1.067l.977 5.412c.083.458-.111.922-.495 1.187a1.21 1.21 0 0 1-1.286.088l-4.872-2.54a1.244 1.244 0 0 0-.55-.144h-.298a.893.893 0 0 0-.297.099l-4.872 2.552c-.24.121-.514.164-.78.121a1.222 1.222 0 0 1-.98-1.398l.98-5.41a1.231 1.231 0 0 0-.352-1.078l-3.971-3.85a1.187 1.187 0 0 1-.296-1.242c.147-.436.523-.753.978-.825l5.466-.793c.416-.043.78-.296.968-.67L95.887.638c.057-.11.13-.211.22-.297l.098-.077a.738.738 0 0 1 .177-.143l.12-.044L96.69 0h.463c.414.043.778.29.968.66l2.441 4.916c.176.36.518.61.913.67l5.466.793c.462.066.848.385 1.001.825.144.441.02.925-.319 1.243L103.508 13Zm28 0a1.212 1.212 0 0 0-.35 1.067l.977 5.412c.083.458-.111.922-.495 1.187a1.21 1.21 0 0 1-1.286.088l-4.872-2.54a1.24 1.24 0 0 0-.55-.144h-.298a.9.9 0 0 0-.297.099l-4.872 2.552a1.285 1.285 0 0 1-.781.121 1.223 1.223 0 0 1-.979-1.398l.979-5.41a1.23 1.23 0 0 0-.351-1.078l-3.971-3.85a1.187 1.187 0 0 1-.296-1.242c.147-.436.523-.753.978-.825l5.466-.793c.416-.043.781-.296.968-.67l2.408-4.938a1.17 1.17 0 0 1 .22-.297l.099-.077a.749.749 0 0 1 .178-.143l.119-.044.187-.077h.463c.414.043.778.29.968.66l2.441 4.916c.176.36.518.61.913.67l5.466.793c.462.066.848.385 1.001.825.144.441.02.925-.319 1.243L131.508 13Z" fill="#FF965B"/></svg>