<svg width="33" height="26" fill="none" xmlns="http://www.w3.org/2000/svg"><path d="M10.378 26c12.454 0 19.264-10.002 19.264-18.675 0-.284-.006-.567-.02-.849A13.541 13.541 0 0 0 33 3.077a13.83 13.83 0 0 1-3.888 1.034c1.398-.813 2.47-2.098 2.977-3.63a13.842 13.842 0 0 1-4.299 1.593A6.864 6.864 0 0 0 22.848 0c-3.74 0-6.771 2.94-6.771 6.563 0 .515.06 1.016.176 1.496-5.627-.274-10.617-2.886-13.957-6.857A6.393 6.393 0 0 0 1.38 4.5c0 2.277 1.195 4.287 3.013 5.463a6.883 6.883 0 0 1-3.067-.82v.083c0 3.179 2.333 5.833 5.431 6.434a6.982 6.982 0 0 1-3.058.113c.862 2.608 3.362 4.505 6.325 4.559a13.856 13.856 0 0 1-8.409 2.81c-.54 0-1.079-.03-1.615-.092A19.606 19.606 0 0 0 10.379 26" fill="#AAA"/></svg>