<svg width="22" height="21" fill="none" xmlns="http://www.w3.org/2000/svg"><path d="M17.509 13a1.21 1.21 0 0 0-.351 1.067l.977 5.412c.083.458-.11.922-.495 1.187a1.21 1.21 0 0 1-1.286.088l-4.872-2.54a1.244 1.244 0 0 0-.55-.144h-.298a.893.893 0 0 0-.297.099L5.465 20.72c-.24.121-.514.164-.78.121a1.223 1.223 0 0 1-.98-1.398l.98-5.41a1.23 1.23 0 0 0-.352-1.078L.362 9.106a1.187 1.187 0 0 1-.296-1.242c.147-.436.523-.753.978-.825l5.466-.793c.416-.043.78-.296.968-.67L9.886.638a1.17 1.17 0 0 1 .22-.297l.1-.077a.738.738 0 0 1 .177-.143l.12-.044.186-.077h.463c.414.043.778.29.968.66l2.44 4.916c.177.36.519.61.914.67l5.466.793c.462.066.848.385 1 .825.145.441.02.925-.318 1.243L17.509 13Z" fill="#FF965B"/></svg>